KRSPY-parametric-WideBlackMaxGrade.ufo
<glyph name="one" format="2">
  <advance width="4446.101122143164"/>
  <unicode hex="0031"/>
  <outline>
    <contour>
      <point x="87.67591315038763" y="0.0" type="line"/>
      <point x="4224.226905584263" y="0.0" type="line" identifier="CURJAw79Zl"/>
      <point x="4224.226905584263" y="591.3411609808006" type="line" identifier="0DUCJo8xIi"/>
      <point x="2625.3021279537793" y="591.3411609808006" type="line" identifier="5nmxQXofSG"/>
      <point x="2625.3021279537793" y="1600.0" type="line" identifier="4rjIeWbSbx"/>
      <point x="84.58578097617138" y="1600.0" type="line"/>
      <point x="84.58578097617138" y="1008.6588390191993" type="line"/>
      <point x="1686.6006907808708" y="1008.6588390191993" type="line"/>
      <point x="1686.6006907808708" y="591.3411609808006" type="line"/>
      <point x="87.67591315038763" y="591.3411609808006" type="line"/>
    </contour>
  </outline>
</glyph>
<glyph name="two" format="2">
  <advance width="4316.592052495018"/>
  <unicode hex="0032"/>
  <outline>
    <contour>
      <point x="175.8073625556367" y="0.0" type="line"/>
      <point x="4140.844369441009" y="0.0" type="line" identifier="pzdvPTirLJ"/>
      <point x="4140.844369441009" y="576.8043545844944" type="line" identifier="91SxUS0iwG"/>
      <point x="3478.8313715494237" y="576.8043545844944" type="line" identifier="fP7EN0pUcl"/>
      <point x="3478.8313715494237" y="558.1197357357357" type="line" identifier="eb458Bdvng"/>
      <point x="1343.1811453234857" y="558.1197357357357" type="line"/>
      <point x="1343.1811453234857" y="577.1274954954956" type="line" identifier="9fjc25rkUx"/>
      <point x="4136.317574468162" y="731.2494414414414" type="line" identifier="yyb1NCCI5w"/>
      <point x="4136.317574468162" y="1600.0" type="line" identifier="5FogYRSgkk"/>
      <point x="179.0409202912462" y="1600.0" type="line" identifier="svlFvrau4c"/>
      <point x="179.0409202912462" y="941.6732403553103" type="line" identifier="LQ9fBsTy9K"/>
      <point x="841.0539181828315" y="941.6732403553103" type="line" identifier="jS6EyIAKtm"/>
      <point x="841.0539181828315" y="1043.2937897897898" type="line"/>
      <point x="2967.674106192679" y="1043.2937897897898" type="line" identifier="N6CMAjhNlU"/>
      <point x="2967.674106192679" y="988.6675137306675" type="line" identifier="yK1d5IcluK"/>
      <point x="175.8073625556367" y="805.2915795795797" type="line" identifier="teVKnpBcVb"/>
    </contour>
  </outline>
</glyph>
<glyph name="three" format="2">
  <advance width="5335.121364607851"/>
  <unicode hex="0033"/>
  <outline>
    <contour>
      <point x="224.01202704205707" y="0.0" type="line" identifier="O9abUc1nmN"/>
      <point x="5111.20543366189" y="0.0" type="line" identifier="kMJYMTfXCq"/>
      <point x="5111.20543366189" y="895.5220716211708" type="line" identifier="su2XmdS8e8"/>
      <point x="4622.15045375706" y="895.5220716211708" type="line" identifier="JQaOzDQqlF"/>
      <point x="4622.15045375706" y="785.7091956821686" type="line"/>
      <point x="5098.518560602645" y="1076.085572058545" type="line" identifier="S91TzLL02W"/>
      <point x="5098.518560602645" y="1600.0" type="line" identifier="xg8x2Ki40p"/>
      <point x="247.29730330931534" y="1600.0" type="line" identifier="pE1XSRiy68"/>
      <point x="247.29730330931534" y="1026.1149257365473" type="line" identifier="5lNstGRcSF"/>
      <point x="1016.4375877378881" y="1026.1149257365473" type="line" identifier="AcE5xKDZfE"/>
      <point x="1016.4375877378881" y="1042.1629737845954" type="line" identifier="7ogBYufWpl"/>
      <point x="3955.4959343728115" y="1042.1629737845954" type="line" identifier="RHLvSX2Jv6"/>
      <point x="3955.4959343728115" y="1036.7779671563455" type="line" identifier="YUjTrmoWd9"/>
      <point x="3832.8672426179933" y="961.3792681570459" type="line"/>
      <point x="3832.8672426179933" y="960.9180261342424" type="line" identifier="iic1IBkDqp"/>
      <point x="1644.215681146612" y="960.9180261342424" type="line" identifier="lRLJEhXMlO"/>
      <point x="1644.215681146612" y="632.9988366745124" type="line" identifier="8aKgEELrVU"/>
      <point x="4171.65619072526" y="632.9988366745124" type="line" identifier="Dm8zjmbhNr"/>
      <point x="4171.65619072526" y="556.9222375528682" type="line" identifier="xv9CFHiFgB"/>
      <point x="993.0962133304475" y="556.9222375528682" type="line" identifier="YajKQV3MHP"/>
      <point x="993.0962133304475" y="568.5997889781675" type="line" identifier="36SchVkwze"/>
      <point x="224.01202704205707" y="568.5997889781675" type="line" identifier="tVui9PiOjA"/>
    </contour>
  </outline>
</glyph>
<glyph name="four" format="2">
  <advance width="5347.1602773945115"/>
  <unicode hex="0034"/>
  <outline>
    <contour>
      <point x="3794.1183585988383" y="0.0" type="line"/>
      <point x="4732.8197957717475" y="0.0" type="line"/>
      <point x="4732.8197957717475" y="463.25254082911744" type="line"/>
      <point x="5130.679481283084" y="463.25254082911744" type="line"/>
      <point x="5130.679481283084" y="1013.2909936963991" type="line"/>
      <point x="4732.8197957717475" y="1013.2909936963991" type="line"/>
      <point x="4732.8197957717475" y="1600.0" type="line"/>
      <point x="3794.1183585988383" y="1600.0" type="line"/>
      <point x="3794.1183585988383" y="1013.2909936963991" type="line"/>
      <point x="1161.2372492612733" y="1013.2909936963991" type="line"/>
      <point x="1161.2372492612733" y="1073.5200966732498" type="line"/>
      <point x="1626.5835625415205" y="1680.0" type="line"/>
      <point x="688.7868288709129" y="1680.0" type="line"/>
      <point x="224.24409093778462" y="1073.4240005771537" type="line"/>
      <point x="224.24409093778462" y="463.25254082911744" type="line"/>
      <point x="3794.1183585988383" y="463.25254082911744" type="line"/>
    </contour>
  </outline>
</glyph>
<glyph name="five" format="2">
  <advance width="4316.044200999269"/>
  <unicode hex="0035"/>
  <outline>
    <contour>
      <point x="180.1832986696246" y="0.0" type="line" identifier="09VlJ0BjUX"/>
      <point x="4137.423825074516" y="0.0" type="line" identifier="EagWihqFM8"/>
      <point x="4137.423825074516" y="909.7260918792667" type="line" identifier="KfNuQA7eZe"/>
      <point x="952.5111600277755" y="925.5609026900772" type="line" identifier="At364YZFEy"/>
      <point x="952.5111600277755" y="1041.8802642642643" type="line" identifier="BcuLfvaQKC"/>
      <point x="4137.423825074516" y="1041.8802642642643" type="line" identifier="3ZUkG35meB"/>
      <point x="4137.423825074516" y="1600.0" type="line" identifier="SaF9ojRFrW"/>
      <point x="178.6203759247536" y="1600.0" type="line" identifier="F4sQEYelA8"/>
      <point x="178.6203759247536" y="586.0329830350711" type="line" identifier="3sQ8t8BZ6b"/>
      <point x="3363.533040971494" y="569.9646144886509" type="line" identifier="yiV6OCBLHg"/>
      <point x="3363.533040971494" y="558.1197357357357" type="line" identifier="9kdl9SYsn8"/>
      <point x="841.6333738163388" y="558.1197357357357" type="line" identifier="yZDWuX8LLe"/>
      <point x="841.6333738163388" y="514.128048048048" type="line" identifier="jYb9001DTm"/>
      <point x="180.1832986696246" y="514.128048048048" type="line" identifier="ho4DrS0rdW"/>
    </contour>
  </outline>
</glyph>
<glyph name="six" format="2">
  <advance width="4317.70532194234"/>
  <unicode hex="0036"/>
  <outline>
    <contour>
      <point x="175.8073625556367" y="0.0" type="line" identifier="uiw6aBUf4P"/>
      <point x="4141.077927176618" y="0.0" type="line" identifier="jtYkxiUX6G"/>
      <point x="4141.077927176618" y="951.4961201201202" type="line" identifier="2G5L37c87I"/>
      <point x="949.1352239137876" y="951.4961201201202" type="line"/>
      <point x="949.1352239137876" y="914.6097537537537" type="line"/>
      <point x="1083.897175288153" y="1027.745009009009" type="line"/>
      <point x="3478.8313715494237" y="1027.745009009009" type="line"/>
      <point x="3478.8313715494237" y="1072.0898018018017" type="line"/>
      <point x="4139.84436944101" y="1072.0898018018017" type="line" identifier="Wuidbv6mUe"/>
      <point x="4139.84436944101" y="1600.0" type="line" identifier="oGvEEuxnYv"/>
      <point x="543.9370218157617" y="1600.0" type="line" identifier="xR3pEHbMJx"/>
      <point x="175.8073625556367" y="1153.082042042042" type="line" identifier="KnMArb0tv8"/>
    </contour>
    <contour>
      <point x="3366.480380310833" y="589.2854774774775" type="line"/>
      <point x="3366.480380310833" y="543.9844804804804" type="line"/>
      <point x="949.1352239137876" y="543.9844804804804" type="line"/>
      <point x="949.1352239137876" y="589.2854774774775" type="line"/>
    </contour>
  </outline>
</glyph>
<glyph name="seven" format="2">
  <advance width="5333.6468480492495"/>
  <unicode hex="0037"/>
  <outline>
    <contour>
      <point x="1864.8769189610032" y="0.0" type="line"/>
      <point x="3143.5611347082818" y="0.0" type="line" identifier="PiPrv7Kcoy"/>
      <point x="5109.640784929074" y="976.5121938755572" type="line" identifier="PkvwNC9Tx1"/>
      <point x="5109.640784929074" y="1600.0" type="line" identifier="tgqM27bPOm"/>
      <point x="223.4414143873603" y="1600.0" type="line" identifier="36ml4xRICt"/>
      <point x="223.4414143873603" y="658.8081955829705" type="line" identifier="aaDZsh5Mah"/>
      <point x="992.5256006757508" y="658.8081955829705" type="line"/>
      <point x="992.5256006757508" y="1008.6588390191993" type="line"/>
      <point x="3832.677515353191" y="1008.6588390191993" type="line"/>
      <point x="3832.677515353191" y="994.330709087466" type="line"/>
    </contour>
  </outline>
</glyph>
<glyph name="eight" format="2">
  <advance width="4340.138272493755"/>
  <unicode hex="0038"/>
  <outline>
    <contour>
      <point x="3096.79001509964" y="604.8647447447447" type="line"/>
      <point x="3385.256733553445" y="466.06818018018015" type="line"/>
      <point x="3385.256733553445" y="539.7439039039039" type="line"/>
      <point x="954.8815389403097" y="539.7439039039039" type="line"/>
      <point x="954.8815389403097" y="453.3464504504504" type="line"/>
      <point x="1244.7617829196404" y="604.157981981982" type="line"/>
    </contour>
    <contour>
      <point x="3847.28889786969" y="799.0" type="line"/>
      <point x="3847.28889786969" y="801.0" type="line"/>
      <point x="4155.494877193879" y="1002.0868264011762" type="line"/>
      <point x="4155.494877193879" y="1600.0" type="line"/>
      <point x="184.78723531776822" y="1600.0" type="line"/>
      <point x="184.78723531776822" y="1002.0868264011762" type="line"/>
      <point x="493.998771843411" y="801.0" type="line"/>
      <point x="493.998771843411" y="799.0" type="line"/>
      <point x="181.55367758215874" y="597.0334618871123" type="line"/>
      <point x="181.55367758215874" y="0.0" type="line"/>
      <point x="4158.728434929489" y="0.0" type="line"/>
      <point x="4158.728434929489" y="597.0334618871123" type="line"/>
    </contour>
    <contour>
      <point x="1244.7617829196404" y="1009.2705105105105" type="line"/>
      <point x="958.8218594386819" y="1154.2549909909908" type="line"/>
      <point x="958.1150966759192" y="1074.3913513513514" type="line"/>
      <point x="3382.0231758178356" y="1074.3913513513514" type="line"/>
      <point x="3381.316413055073" y="1154.2549909909908" type="line"/>
      <point x="3096.0832523368776" y="1009.9772732732732" type="line"/>
    </contour>
  </outline>
</glyph>
<glyph name="nine" format="2">
  <advance width="5334.454655857058"/>
  <unicode hex="0039"/>
  <outline>
    <contour>
      <point x="5110.827013199385" y="1600.0" type="line" identifier="uiw6aBUf4P"/>
      <point x="224.34650265881496" y="1600.0" type="line" identifier="jtYkxiUX6G"/>
      <point x="224.34650265881496" y="620.0673376078781" type="line" identifier="2G5L37c87I"/>
      <point x="4171.2777702627545" y="620.0673376078781" type="line"/>
      <point x="4171.2777702627545" y="548.3175066958851" type="line"/>
      <point x="993.7118289460632" y="548.3175066958851" type="line"/>
      <point x="993.7118289460632" y="483.6831245660075" type="line"/>
      <point x="224.62764265767268" y="483.6831245660075" type="line" identifier="Wuidbv6mUe"/>
      <point x="224.62764265767268" y="0.0" type="line" identifier="oGvEEuxnYv"/>
      <point x="5110.827013199385" y="0.0" type="line" identifier="xR3pEHbMJx"/>
    </contour>
    <contour>
      <point x="1162.1874667460252" y="972.5686136587037" type="line"/>
      <point x="1162.1874667460252" y="1034.4730315901486" type="line"/>
      <point x="4171.2777702627545" y="1034.4730315901486" type="line"/>
      <point x="4171.2777702627545" y="972.5686136587037" type="line"/>
    </contour>
  </outline>
</glyph>
<glyph name="A" format="2">
  <advance width="5338.150074999924"/>
  <unicode hex="0041"/>
  <outline>
    <contour>
      <point x="225.95166337508678" y="0.0" type="line" smooth="yes" identifier="jFq8ta4UUc"/>
      <point x="1163.792627462297" y="0.0" type="line" smooth="yes" identifier="dQz4RxYhG4"/>
      <point x="1163.792627462297" y="339.970483997511" type="line" smooth="yes" identifier="viYRWe5UN7"/>
      <point x="4173.053960867775" y="339.970483997511" type="line" smooth="yes" identifier="QVexAlbAcl"/>
      <point x="4173.053960867775" y="0.0" type="line" smooth="yes" identifier="ZgsCdxNJRW"/>
      <point x="5112.603203804405" y="0.0" type="line" smooth="yes" identifier="kpn4Kw9J0C"/>
      <point x="5112.603203804405" y="1600.0" type="line" smooth="yes" identifier="OBZ5Ayed7M"/>
      <point x="694.5975555134714" y="1600.0" type="line" smooth="yes" identifier="iDT0uyhKrn"/>
      <point x="225.95166337508678" y="1081.0346983620257" type="line" smooth="yes" identifier="dqVr87m3uJ"/>
    </contour>
    <contour>
      <point x="1163.792627462297" y="871.07852897943" type="line" smooth="yes" identifier="IIRC9Wy7kQ"/>
      <point x="1163.792627462297" y="834.8832977121265" type="line" smooth="yes" identifier="VufvPdJ075"/>
      <point x="1335.1057814571327" y="1008.6588390191993" type="line" smooth="yes" identifier="FsYtJ2vFnp"/>
      <point x="4173.053960867775" y="1008.6588390191993" type="line" smooth="yes" identifier="tUsW8L7b0y"/>
      <point x="4173.053960867775" y="871.07852897943" type="line" smooth="yes" identifier="eTe9B4y76W"/>
    </contour>
  </outline>
</glyph>
<glyph name="B" format="2">
  <advance width="5333.145752358965"/>
  <unicode hex="0042"/>
  <outline>
    <contour>
      <point x="223.2665518371224" y="0.0" type="line" identifier="hvY9r8RmLr"/>
      <point x="5109.807777747717" y="0.0" type="line" identifier="9QFpw7nfq7"/>
      <point x="5109.807777747717" y="568.249204159114" type="line" identifier="543PerILpr"/>
      <point x="4763.209596984371" y="799.8478057637217" type="line" identifier="zhomauHW30"/>
      <point x="4763.209596984371" y="801.8478057637217" type="line" identifier="870ZhtaozS"/>
      <point x="5061.818322827332" y="1025.7236846456067" type="line" identifier="eGKH52Jgnk"/>
      <point x="5061.818322827332" y="1600.0" type="line" identifier="FaP204GrdB"/>
      <point x="223.2665518371224" y="1600.0" type="line" identifier="JEev70GAj6"/>
    </contour>
    <contour>
      <point x="1161.1075159243328" y="1022.3674214755296" type="line" identifier="By7dfMihfe"/>
      <point x="1161.1075159243328" y="1103.1279207135065" type="line" identifier="1p5hKrurVy"/>
      <point x="4123.116885654423" y="1103.1279207135065" type="line" identifier="Qby8aMtF2X"/>
      <point x="4123.116885654423" y="1177.123826529232" type="line" identifier="9lW01gQyU2"/>
      <point x="3970.972029086143" y="1022.3674214755296" type="line" identifier="xpxyvIzPoc"/>
    </contour>
    <contour>
      <point x="1161.1075159243328" y="496.6891215539864" type="line" identifier="jaMSiLrCua"/>
      <point x="1161.1075159243328" y="577.6325785244704" type="line" identifier="XSrxNd2axx"/>
      <point x="3834.1441411381347" y="577.6325785244704" type="line" identifier="VyYlzRh5nq"/>
      <point x="4171.106340574808" y="365.22067713359" type="line" identifier="lsRGatjQja"/>
      <point x="4171.106340574808" y="496.6891215539864" type="line" identifier="xhlDJ3CjD5"/>
    </contour>
  </outline>
</glyph>
<glyph name="C" format="2">
  <advance width="5460.078321564807"/>
  <unicode hex="0043"/>
  <outline>
    <contour>
      <point x="222.14810907003098" y="0.0" type="line" identifier="7lPhzTnk2Z"/>
      <point x="5032.712896079262" y="0.0" type="line" identifier="qJVLZGnkwh"/>
      <point x="5032.712896079262" y="617.6898099300502" type="line" identifier="nDnDHzAMXL"/>
      <point x="4094.011458906353" y="617.6898099300502" type="line" identifier="QX1V08aTu0"/>
      <point x="4094.011458906353" y="599.9458918377837" type="line" identifier="Y750RHTvDj"/>
      <point x="1160.7934481027573" y="599.9458918377837" type="line" identifier="L2LsGnXiZ2"/>
      <point x="1161.6539211884556" y="766.0303606910217" type="line" identifier="sUWsr03vF4"/>
      <point x="1389.9723236750262" y="1000.0541081622162" type="line" identifier="dbOUe6OhxL"/>
      <point x="4093.928030132234" y="1000.0541081622162" type="line" identifier="5BjRbcud80"/>
      <point x="4093.0675570465355" y="853.6550815079344" type="line" identifier="fNVDqwQo2o"/>
      <point x="5031.712896079262" y="853.6550815079344" type="line" identifier="wLqQQx7QVN"/>
      <point x="5031.712896079262" y="1600.0" type="line" identifier="9eJelv8BOw"/>
      <point x="695.564191819447" y="1600.0" type="line" identifier="lfZev3ICaC"/>
      <point x="222.14810907003098" y="1093.262424586749" type="line" identifier="V1EWIdPahq"/>
    </contour>
  </outline>
</glyph>
<glyph name="D" format="2">
  <advance width="4322.007950436347"/>
  <unicode hex="0044"/>
  <outline>
    <contour>
      <point x="175.81768309743978" y="0.0" type="line" identifier="gh4oopoKIn"/>
      <point x="4144.1479272200495" y="0.0" type="line" identifier="wIy2omw5Da"/>
      <point x="4144.1479272200495" y="1062.5068855406757" type="line" identifier="ydeACnPZN4"/>
      <point x="3629.1821174797865" y="1600.0" type="line" identifier="IF8msvcgce"/>
      <point x="175.81768309743978" y="1600.0" type="line" identifier="hTYdJwlqIh"/>
    </contour>
    <contour>
      <point x="949.1455444555908" y="1013.6097537537537" type="line" identifier="YShvMHvurg"/>
      <point x="3138.566966272074" y="1013.6097537537537" type="line" identifier="DiLdvAK6bW"/>
      <point x="3370.8200658618985" y="799.7284786913037" type="line" identifier="5OFemp6E2Y"/>
      <point x="3370.8200658618985" y="586.3902462462463" type="line" identifier="4w8cXO1HlF"/>
      <point x="949.1455444555908" y="586.3902462462463" type="line" identifier="OGdfzPVlic"/>
    </contour>
  </outline>
</glyph>
<glyph name="F" format="2">
  <advance width="3767.5578848216155"/>
  <unicode hex="0046"/>
  <outline>
    <contour>
      <point x="182.6424660148437" y="0.0" type="line" identifier="oAgH2tA6DJ"/>
      <point x="955.9703273729947" y="0.0" type="line" identifier="zCZyMcW5ho"/>
      <point x="955.9703273729947" y="313.2405765765766" type="line" identifier="yHYqkMd7LI"/>
      <point x="3480.7803290229335" y="313.2405765765766" type="line" identifier="NmB7yyQuio"/>
      <point x="3480.7803290229335" y="834.6086486486487" type="line" identifier="wQk2C8zPHh"/>
      <point x="955.9703273729947" y="834.6086486486487" type="line" identifier="4cFHKQfHDt"/>
      <point x="955.9703273729947" y="1012.1962282282282" type="line" identifier="ZvzwyrcwpS"/>
      <point x="3476.3431995553037" y="1012.1962282282282" type="line" identifier="4E754ovOIe"/>
      <point x="3476.3431995553037" y="940.964995754962" type="line" identifier="vZkeT9KrKR"/>
      <point x="3679.4303203591335" y="940.964995754962" type="line" identifier="0tk7G4orz6"/>
      <point x="3679.4303203591335" y="1600.0" type="line" identifier="NUrIjqOB7J"/>
      <point x="182.6424660148437" y="1600.0" type="line" identifier="TBAYuCfUFX"/>
    </contour>
  </outline>
</glyph>
<glyph name="G" format="2">
  <advance width="5331.6348751153555"/>
  <unicode hex="0047"/>
  <outline>
    <contour>
      <point x="221.97707918128336" y="0.0" type="line" identifier="7lPhzTnk2Z"/>
      <point x="5108.9961853745635" y="0.0" type="line" identifier="qJVLZGnkwh"/>
      <point x="5108.9961853745635" y="962.5054904754605" type="line" identifier="uek1NNj7De"/>
      <point x="2427.3496499502508" y="962.5054904754605" type="line" identifier="qcvimxjndX"/>
      <point x="2427.3496499502508" y="610.8646875103332" type="line" identifier="EARaY3Su65"/>
      <point x="4170.167999831663" y="610.8646875103332" type="line" identifier="4m6dHLVhZq"/>
      <point x="4170.167999831663" y="548.3175066958851" type="line" identifier="Y750RHTvDj"/>
      <point x="1159.8180432684935" y="548.3175066958851" type="line" identifier="L2LsGnXiZ2"/>
      <point x="1159.8180432684935" y="853.2403394385376" type="line" identifier="sUWsr03vF4"/>
      <point x="1353.2699095491887" y="1043.0777624471316" type="line" identifier="dbOUe6OhxL"/>
      <point x="4169.475012550087" y="1043.0777624471316" type="line" identifier="5BjRbcud80"/>
      <point x="4169.475012550087" y="1079.4802399997595" type="line" identifier="fNVDqwQo2o"/>
      <point x="5109.024255486717" y="1079.4802399997595" type="line" identifier="wLqQQx7QVN"/>
      <point x="5108.176449722996" y="1600.0" type="line" identifier="9eJelv8BOw"/>
      <point x="689.9852314777239" y="1600.0" type="line" identifier="lfZev3ICaC"/>
      <point x="221.97707918128336" y="1096.97544691839" type="line" identifier="V1EWIdPahq"/>
    </contour>
  </outline>
</glyph>
<glyph name="H" format="2">
  <advance width="4329.429651160926"/>
  <unicode hex="0048"/>
  <outline>
    <contour>
      <point x="182.6424660148437" y="0.0" type="line" identifier="uqAJBjDIOT"/>
      <point x="955.9703273729947" y="0.0" type="line" identifier="WUaPOcaxKT"/>
      <point x="955.9703273729947" y="525.1807087087087" type="line" identifier="QjywsYY2yB"/>
      <point x="3372.7525610251696" y="525.1807087087087" type="line" identifier="7JgTtdb0jg"/>
      <point x="3372.7525610251696" y="0.0" type="line" identifier="njzlIRBsoY"/>
      <point x="4146.493947908846" y="0.0" type="line" identifier="oOtn61SmRY"/>
      <point x="4146.493947908846" y="1600.0" type="line" identifier="8OglXgblhr"/>
      <point x="3372.7525610251696" y="1600.0" type="line" identifier="db0bPhBdaU"/>
      <point x="3372.7525610251696" y="1074.8192912912914" type="line" identifier="MTAeavIVWY"/>
      <point x="955.9703273729947" y="1074.8192912912914" type="line" identifier="lggLiivmLt"/>
      <point x="955.9703273729947" y="1600.0" type="line" identifier="UPaHY3UudR"/>
      <point x="182.6424660148437" y="1600.0" type="line" identifier="ZnCDQVdtyD"/>
    </contour>
  </outline>
</glyph>
<glyph name="J" format="2">
  <advance width="4044.3641563298793"/>
  <unicode hex="004A"/>
  <outline>
    <contour>
      <point x="256.6151458052648" y="0.0" type="line" identifier="jiO9eX9U07"/>
      <point x="3876.774870697148" y="0.0" type="line" identifier="wgpFs1yguc"/>
      <point x="3876.774870697148" y="1600.0" type="line" identifier="d5Di3vNzni"/>
      <point x="221.38043366148133" y="1600.0" type="line" identifier="TbrXnCyMEi"/>
      <point x="221.38043366148133" y="971.203987987988" type="line" identifier="AdYfGKx8QJ"/>
      <point x="3102.177323831363" y="971.203987987988" type="line" identifier="46RrD1WET2"/>
      <point x="3102.177323831363" y="628.796012012012" type="line" identifier="zFXsE8BUYG"/>
      <point x="879.7257098661185" y="628.796012012012" type="line" identifier="NQmE31PUns"/>
      <point x="820.5803671915519" y="855.4733933933934" type="line" identifier="qiXxY6YhCq"/>
      <point x="46.27605756300446" y="855.4733933933934" type="line" identifier="7exNZv1XSc"/>
    </contour>
  </outline>
</glyph>
<glyph name="K" format="2">
  <advance width="4316.434584358774"/>
  <unicode hex="004B"/>
  <outline>
    <contour>
      <point x="947.8409346006185" y="0.0" type="line" identifier="wmNm7XZsaF"/>
      <point x="947.8409346006185" y="482.7749429429429" type="line" identifier="O22liaP9Qk"/>
      <point x="3124.088769489634" y="482.7749429429429" type="line" identifier="ELFBWIb1vd"/>
      <point x="3364.6231682527937" y="330.3982245325686" type="line" identifier="DzXo67YEfw"/>
      <point x="3364.6231682527937" y="0.0" type="line" identifier="aKpYWD78l2"/>
      <point x="4138.657792373708" y="0.0" type="line" identifier="ChS7KlqGi6"/>
      <point x="4138.657792373708" y="571.5900024276527" type="line" identifier="sWLgkU8Vey"/>
      <point x="3829.027037697157" y="799.0" type="line" identifier="Of0iQc0wBG"/>
      <point x="3829.027037697157" y="801.0" type="line" identifier="j4jnmtDJYB"/>
      <point x="4135.424234638098" y="1016.9288444191942" type="line" identifier="dWvz0rZ5Hv"/>
      <point x="4135.424234638098" y="1600.0" type="line" identifier="dMJ1ywOKQQ"/>
      <point x="3361.3896105171843" y="1600.0" type="line" identifier="08OWjR2YBJ"/>
      <point x="3361.3896105171843" y="1252.4665202121762" type="line" identifier="F62GU90G6q"/>
      <point x="3123.382006726871" y="1111.570954954955" type="line" identifier="g4YLdZEoM3"/>
      <point x="947.8409346006185" y="1111.570954954955" type="line" identifier="uZuki3Isec"/>
      <point x="947.8409346006185" y="1600.0" type="line" identifier="nRfcNgqJ4H"/>
      <point x="173.80631047970493" y="1600.0" type="line" identifier="3XJlWt89ad"/>
      <point x="173.80631047970493" y="0.0" type="line" identifier="wdbO8kCovY"/>
    </contour>
  </outline>
</glyph>
<glyph name="L" format="2">
  <advance width="3496.133610768823"/>
  <unicode hex="004C"/>
  <outline>
    <contour>
      <point x="176.4254411678706" y="0.0" type="line" identifier="XkJNfQlnnt"/>
      <point x="3418.341623662437" y="0.0" type="line" identifier="82EXZEgt46"/>
      <point x="3418.341623662437" y="447.6425428464139" type="line" identifier="VYRt9kHZtP"/>
      <point x="3215.817425603477" y="447.6425428464139" type="line" identifier="t7Q9RRLHt8"/>
      <point x="3217.2309511290027" y="628.796012012012" type="line" identifier="cqpSxwFiM3"/>
      <point x="951.0229880336553" y="628.796012012012" type="line" identifier="MbxRZRd8vz"/>
      <point x="951.0229880336553" y="1600.0" type="line" identifier="lYiaKSKITt"/>
      <point x="176.4254411678706" y="1600.0" type="line" identifier="XFf4mMUzYo"/>
    </contour>
  </outline>
</glyph>
<glyph name="M" format="2">
  <advance width="5516.695680665649"/>
  <unicode hex="004D"/>
  <outline>
    <contour>
      <point x="2693.3071239407577" y="80.0" type="line" identifier="0Dn4Xpf57M"/>
      <point x="1192.9608828047267" y="888.1926070214358" type="line"/>
      <point x="1166.000018036054" y="888.1926070214358" type="line"/>
      <point x="1166.000018036054" y="0.0" type="line"/>
      <point x="227.29858086314542" y="0.0" type="line"/>
      <point x="227.29858086314542" y="1600.0" type="line"/>
      <point x="1245.7741855970085" y="1600.0" type="line"/>
      <point x="2747.2932993053114" y="788.1482383284185" type="line"/>
      <point x="2769.402381360339" y="788.1482383284185" type="line" identifier="9aKZPM0HPh"/>
      <point x="4270.1171201231255" y="1600.0" type="line"/>
      <point x="5290.244905566226" y="1600.0" type="line"/>
      <point x="5290.244905566226" y="0.0" type="line"/>
      <point x="4350.695662629596" y="0.0" type="line"/>
      <point x="4350.695662629596" y="888.1926070214358" type="line"/>
      <point x="4324.638701764827" y="888.1926070214358" type="line"/>
      <point x="2823.3885567248926" y="80.0" type="line" identifier="spdoeeCFft"/>
    </contour>
  </outline>
</glyph>
<glyph name="N" format="2">
  <advance width="3793.8815613180036"/>
  <unicode hex="004E"/>
  <outline>
    <contour>
      <point x="207.30470800082966" y="0.0" type="line" identifier="CkwYPPvJLv"/>
      <point x="980.6325693589806" y="0.0" type="line" identifier="oHTJsN7drZ"/>
      <point x="980.6325693589806" y="980.0011051051051" type="line" identifier="wfBbYd10Pm"/>
      <point x="1000.8327686689212" y="980.0011051051051" type="line" identifier="MEnBDHq6zU"/>
      <point x="2706.1615978622226" y="0.0" type="line" identifier="3Nbopwznvn"/>
      <point x="3613.435992912264" y="0.0" type="line" identifier="uKfuudIUvA"/>
      <point x="3613.435992912264" y="1600.0" type="line" identifier="XRdLFXiM4t"/>
      <point x="2840.1081315541123" y="1600.0" type="line" identifier="MUSJPjCIXg"/>
      <point x="2840.1081315541123" y="619.9988948948949" type="line" identifier="VILP20cFmq"/>
      <point x="2819.243509600267" y="619.9988948948949" type="line" identifier="z5b04GDwRN"/>
      <point x="1112.0401289661554" y="1600.0" type="line" identifier="LL64NQ6WBE"/>
      <point x="207.30470800082966" y="1600.0" type="line" identifier="dzUaaP1sjt"/>
    </contour>
  </outline>
</glyph>
<glyph name="O" format="2">
  <advance width="5339.413049686323"/>
  <unicode hex="004F"/>
  <outline>
    <contour>
      <point x="5084.757697637578" y="502.1198916634351" type="line" identifier="ob8US3C311"/>
      <point x="5084.757697637578" y="1600.0" type="line" identifier="c9brEFyXXA"/>
      <point x="723.0303246189131" y="1600.0" type="line" identifier="a4Ql951bxG"/>
      <point x="257.2367713058403" y="1093.0970700430162" type="line" identifier="kbL68Qh2zr"/>
      <point x="257.2367713058403" y="0.0" type="line" identifier="U6WibAQAUl"/>
      <point x="4619.013539064589" y="0.0" type="line" identifier="dfgNHTgBfR"/>
    </contour>
    <contour>
      <point x="4146.056260464668" y="972.4829393958522" type="line" identifier="SnrsQD5TLy"/>
      <point x="3851.483594705817" y="642.9695461226993" type="line" identifier="jjd5iRDXWT"/>
      <point x="1195.0777353930507" y="642.9695461226993" type="line" identifier="YbQKHpAtYn"/>
      <point x="1195.0777353930507" y="620.5125545966387" type="line" identifier="vdfGLkskOQ"/>
      <point x="1517.234934634334" y="957.0304538773006" type="line" identifier="qXlVxK5ShE"/>
      <point x="4146.056260464668" y="957.0304538773006" type="line" identifier="g70r2r6DwY"/>
    </contour>
  </outline>
</glyph>
<glyph name="P" format="2">
  <advance width="4321.443688842861"/>
  <unicode hex="0050"/>
  <outline>
    <contour>
      <point x="182.6424660148437" y="0.0" type="line" identifier="EG08jqU5fb"/>
      <point x="955.9703273729947" y="0.0" type="line" identifier="osRzIFK2Cu"/>
      <point x="955.9703273729947" y="300.74388894754213" type="line" identifier="hIFVovVRwe"/>
      <point x="4133.876228501799" y="428.67017417417424" type="line" identifier="Tt6D8zYZmU"/>
      <point x="4133.876228501799" y="1600.0" type="line" identifier="6xW04auDFu"/>
      <point x="182.6424660148437" y="1600.0" type="line" identifier="eETO5GBD5v"/>
    </contour>
    <contour>
      <point x="955.9703273729947" y="786.1418949535481" type="line" identifier="PIBVN1PGv1"/>
      <point x="955.9703273729947" y="1013.6097537537537" type="line" identifier="IZIZQr2gYJ"/>
      <point x="3359.2786816360144" y="1013.6097537537537" type="line" identifier="2c4LCF1E1R"/>
      <point x="3359.2786816360144" y="840.0364561828857" type="line" identifier="1WCnzth1GX"/>
    </contour>
  </outline>
</glyph>
<glyph name="Q" format="2">
  <advance width="5338.8999600200805"/>
  <unicode hex="0051"/>
  <outline>
    <contour>
      <point x="5082.1762783804825" y="1601.7209461713967" type="line" identifier="c9brEFyXXA"/>
      <point x="720.3263593924255" y="1601.7209461713967" type="line" identifier="a4Ql951bxG"/>
      <point x="257.2367713058403" y="1104.6376286196105" type="line" identifier="kbL68Qh2zr"/>
      <point x="257.2367713058403" y="1.7209461713966216" type="line" identifier="U6WibAQAUl"/>
      <point x="5082.1762783804825" y="1.7209461713966216" type="line" identifier="dfgNHTgBfR"/>
    </contour>
    <contour>
      <point x="4144.335314293272" y="593.0621071521972" type="line" identifier="jjd5iRDXWT"/>
      <point x="1195.0777353930507" y="593.0621071521972" type="line" identifier="YbQKHpAtYn"/>
      <point x="1195.0777353930507" y="722.6836746656567" type="line" identifier="vdfGLkskOQ"/>
      <point x="1432.439045652259" y="1010.3797851905958" type="line" identifier="qXlVxK5ShE"/>
      <point x="4144.335314293272" y="1010.3797851905958" type="line" identifier="g70r2r6DwY"/>
    </contour>
    <contour>
      <point x="2284.737316896476" y="-434.9570771973174" type="line"/>
      <point x="3116.3420146873605" y="-434.9570771973174" type="line"/>
      <point x="3116.3420146873605" y="1.8197356515674834" type="line"/>
      <point x="2284.737316896476" y="1.8197356515674834" type="line"/>
    </contour>
  </outline>
</glyph>
<glyph name="R" format="2">
  <advance width="4329.43058044596"/>
  <unicode hex="0052"/>
  <outline>
    <contour>
      <point x="980.367878164579" y="905.5565405405405" type="line"/>
      <point x="978.9543526390535" y="1013.6097537537537" type="line"/>
      <point x="3348.175971728702" y="1013.6097537537537" type="line"/>
      <point x="3348.882734491465" y="1076.2470428649913" type="line"/>
      <point x="3078.541984318301" y="905.5565405405405" type="line"/>
    </contour>
    <contour>
      <point x="4125.503833086853" y="0.0" type="line"/>
      <point x="4126.210595849616" y="441.4248132384636" type="line"/>
      <point x="3830.220834878266" y="661.5415735735736" type="line"/>
      <point x="3830.220834878266" y="663.5415735735736" type="line"/>
      <point x="4122.917358612378" y="879.4704179927677" type="line"/>
      <point x="4122.210595849615" y="1600.0" type="line"/>
      <point x="205.62649128090254" y="1600.0" type="line"/>
      <point x="205.62649128090254" y="0.0" type="line"/>
      <point x="979.6611154018162" y="0.0" type="line"/>
      <point x="979.6611154018162" y="392.6696216216216" type="line"/>
      <point x="3079.2487470810634" y="392.6696216216216" type="line"/>
      <point x="3351.4692089659393" y="213.31706906906902" type="line"/>
      <point x="3351.4692089659393" y="0.0" type="line"/>
    </contour>
  </outline>
</glyph>
<glyph name="S" format="2">
  <advance width="4989.741648555461"/>
  <unicode hex="0053"/>
  <outline>
    <contour>
      <point x="258.155359563768" y="0.0" type="line" identifier="09VlJ0BjUX"/>
      <point x="4732.970432895358" y="0.0" type="line" identifier="EagWihqFM8"/>
      <point x="4732.970432895358" y="973.3897440984529" type="line" identifier="KfNuQA7eZe"/>
      <point x="1217.1907974040105" y="973.3897440984529" type="line" identifier="At364YZFEy"/>
      <point x="1217.1907974040105" y="1045.822128434741" type="line" identifier="BcuLfvaQKC"/>
      <point x="3964.6906215524837" y="1045.822128434741" type="line" identifier="3ZUkG35meB"/>
      <point x="3964.6906215524837" y="1120.9822976129283" type="line" identifier="DTOJhFIl15"/>
      <point x="4722.753332912492" y="1120.9822976129283" type="line" identifier="9KDcrfQ5Ui"/>
      <point x="4722.753332912492" y="1600.0" type="line" identifier="SaF9ojRFrW"/>
      <point x="277.6415544673803" y="1600.0" type="line" identifier="F4sQEYelA8"/>
      <point x="277.6415544673803" y="618.5770635500365" type="line" identifier="3sQ8t8BZ6b"/>
      <point x="3795.1294688081475" y="618.5770635500365" type="line" identifier="yiV6OCBLHg"/>
      <point x="3795.1294688081475" y="556.9222375528682" type="line" identifier="9kdl9SYsn8"/>
      <point x="1027.204165126087" y="556.9222375528682" type="line" identifier="yZDWuX8LLe"/>
      <point x="1027.204165126087" y="480.67817366916466" type="line" identifier="jYb9001DTm"/>
      <point x="258.155359563768" y="480.67817366916466" type="line" identifier="ho4DrS0rdW"/>
    </contour>
  </outline>
</glyph>
<glyph name="U" format="2">
  <advance width="4327.7299072391315"/>
  <unicode hex="0055"/>
  <outline>
    <contour>
      <point x="3371.5796120762207" y="1600.0" type="line" smooth="yes"/>
      <point x="3371.5796120762207" y="586.3902462462463" type="line"/>
      <point x="1163.601876792252" y="586.3902462462463" type="line" smooth="yes"/>
      <point x="954.4680134147842" y="803.0168027680293" type="line" smooth="yes"/>
      <point x="954.4680134147842" y="1600.0" type="line"/>
      <point x="181.1401520566332" y="1600.0" type="line" smooth="yes"/>
      <point x="181.1401520566332" y="523.7016714588462" type="line" smooth="yes"/>
      <point x="579.0029826312078" y="0.0" type="line" smooth="yes"/>
      <point x="4146.177158942006" y="0.0" type="line" smooth="yes"/>
      <point x="4146.177158942006" y="1600.0" type="line" smooth="yes"/>
    </contour>
  </outline>
</glyph>
<glyph name="V" format="2">
  <advance width="4327.7299072391315"/>
  <unicode hex="0056"/>
  <outline>
    <contour>
      <point x="953.0666670011271" y="1600.0" type="line" smooth="yes"/>
      <point x="953.0666670011271" y="586.3902462462463" type="line"/>
      <point x="3116.0512327598235" y="586.3902462462463" type="line" smooth="yes"/>
      <point x="3370.1782656625637" y="860.8275092966841" type="line" smooth="yes"/>
      <point x="3370.1782656625637" y="1600.0" type="line"/>
      <point x="4144.775812528348" y="1600.0" type="line" smooth="yes"/>
      <point x="4144.775812528348" y="523.7016714588462" type="line" smooth="yes"/>
      <point x="3744.5177250960514" y="0.0" type="line" smooth="yes"/>
      <point x="179.73880564297633" y="0.0" type="line" smooth="yes"/>
      <point x="179.73880564297633" y="1600.0" type="line" smooth="yes"/>
    </contour>
  </outline>
</glyph>
<glyph name="W" format="2">
  <advance width="7712.47105063021"/>
  <unicode hex="0057"/>
  <outline>
    <contour>
      <point x="2064.6028190352513" y="1600.0" type="line" smooth="yes" identifier="12Pyby1xY2"/>
      <point x="1111.2633534435336" y="1600.0" type="line" smooth="yes" identifier="5LJg4ajoG6"/>
      <point x="1111.2633534435336" y="0.0" type="line" smooth="yes" identifier="ZqTZqAY3uY"/>
      <point x="3663.8179110040965" y="0.0" type="line" smooth="yes" identifier="rCeQLyjlsN"/>
      <point x="3859.476410344278" y="291.2009366724081" type="line"/>
      <point x="3862.2730899067233" y="291.2009366724081" type="line"/>
      <point x="4055.144718291865" y="0.0" type="line" smooth="yes" identifier="Pkl7cZ37MU"/>
      <point x="6123.807925042159" y="0.0" type="line" smooth="yes" identifier="R4lklfJsHA"/>
      <point x="6599.026651275899" y="505.05589673757834" type="line" smooth="yes" identifier="7g7f8Wu7K4"/>
      <point x="6599.026651275899" y="1600.0" type="line" smooth="yes" identifier="RTOJW56qXy"/>
      <point x="5660.235081928776" y="1600.0" type="line" identifier="JfSFAkWGZC"/>
      <point x="5660.235081928776" y="837.1032113194275" type="line" smooth="yes" identifier="WWvGwSpq0g"/>
      <point x="5402.491103716328" y="591.3411609808006" type="line" smooth="yes" identifier="oee4nqI8Wl"/>
      <point x="4483.015024033041" y="591.3411609808006" type="line" identifier="Ljn2lpvpG8"/>
      <point x="4328.455202950698" y="873.7385132880628" type="line"/>
      <point x="4328.546681816952" y="1470.9463216970723" type="line" smooth="yes"/>
      <point x="3397.3346499652803" y="1470.9463216970723" type="line"/>
      <point x="3395.52222492763" y="1209.0106352598846" type="line"/>
      <point x="3395.5162610057505" y="874.4709213718222" type="line"/>
      <point x="3201.483378273168" y="591.3411609808006" type="line" identifier="GlWB6PG54Z"/>
      <point x="2064.6028190352513" y="591.3411609808006" type="line" identifier="iqeTRv7HXg"/>
    </contour>
  </outline>
</glyph>
<glyph name="X" format="2">
  <advance width="5350.668247827406"/>
  <unicode hex="0058"/>
  <outline>
    <contour>
      <point x="3831.741849958066" y="499.1665809954098" type="line"/>
      <point x="4183.3902972041105" y="277.53235217199176" type="line"/>
      <point x="4183.3902972041105" y="0.0" type="line"/>
      <point x="5122.09173437702" y="0.0" type="line"/>
      <point x="5122.09173437702" y="560.3393363333303" type="line"/>
      <point x="4763.228480732985" y="799.0" type="line"/>
      <point x="4763.228480732985" y="801.0" type="line"/>
      <point x="5118.995638280923" y="1025.813816819823" type="line"/>
      <point x="5118.995638280923" y="1600.0" type="line"/>
      <point x="4180.385679974269" y="1600.0" type="line"/>
      <point x="4180.385679974269" y="1308.6208009811614" type="line"/>
      <point x="3831.741849958066" y="1100.8334190045903" type="line"/>
      <point x="1514.6674632590548" y="1100.8334190045903" type="line"/>
      <point x="1165.1758274791307" y="1308.6208009811614" type="line"/>
      <point x="1165.1758274791307" y="1600.0" type="line"/>
      <point x="226.56586917247577" y="1600.0" type="line"/>
      <point x="226.56586917247577" y="1025.813816819823" type="line"/>
      <point x="584.8456805153501" y="801.0" type="line"/>
      <point x="584.8456805153501" y="799.0" type="line"/>
      <point x="223.46977307637968" y="560.3393363333303" type="line"/>
      <point x="223.46977307637968" y="0.0" type="line"/>
      <point x="1162.1712102492882" y="0.0" type="line"/>
      <point x="1162.1712102492882" y="277.53235217199176" type="line"/>
      <point x="1514.6674632590548" y="499.1665809954098" type="line"/>
    </contour>
  </outline>
</glyph>
<glyph name="Y" format="2">
  <advance width="4309.28083336266"/>
  <unicode hex="0059"/>
  <outline>
    <contour>
      <point x="1768.5752009840471" y="1.1258454897419943" type="line" identifier="XKjckKJ7m9"/>
      <point x="2542.3165878677237" y="0.0" type="line" identifier="WihjL321cU"/>
      <point x="2542.3165878677237" y="536.270628841454" type="line" identifier="rvzWMWl6O1"/>
      <point x="4136.629080373202" y="718.0996774648522" type="line" identifier="YbKEFhFR3q"/>
      <point x="4136.629080373202" y="1581.9864721641281" type="line" identifier="wnC8PudY2b"/>
      <point x="3362.5944562522886" y="1581.9864721641281" type="line" identifier="spI4xe8t4f"/>
      <point x="3362.5944562522886" y="1187.1303192997684" type="line" identifier="Jw55i2s2Mm"/>
      <point x="2250.025912828288" y="1083.661955995058" type="line" identifier="9ncbEH2hEb"/>
      <point x="2060.8658760234825" y="1083.661955995058" type="line" identifier="u7HFbTQwMo"/>
      <point x="946.3931398731344" y="1187.1303192997684" type="line" identifier="oy8ifCCtGL"/>
      <point x="946.3931398731344" y="1581.9864721641281" type="line" identifier="ah5yat5gKV"/>
      <point x="172.65175298945792" y="1581.9864721641281" type="line" identifier="fJXhpKV79E"/>
      <point x="172.65175298945792" y="718.0996774648522" type="line" identifier="k3vH9oxqcN"/>
      <point x="1768.5752009840471" y="536.270628841454" type="line" identifier="3Kveia3O9h"/>
    </contour>
  </outline>
</glyph>
<glyph name="Z" format="2">
  <advance width="4317.298815257781"/>
  <unicode hex="005A"/>
  <outline>
    <contour>
      <point x="175.8073625556367" y="0.0" type="line"/>
      <point x="4141.694972221663" y="0.0" type="line" identifier="pzdvPTirLJ"/>
      <point x="4141.694972221663" y="534.0404973997421" type="line" identifier="91SxUS0iwG"/>
      <point x="3480.244897074949" y="534.0404973997421" type="line"/>
      <point x="3480.244897074949" y="586.3902462462463" type="line"/>
      <point x="1343.1811453234857" y="586.3902462462463" type="line"/>
      <point x="1343.1811453234857" y="633.2246137677857" type="line"/>
      <point x="4141.595844738432" y="923.5421145743942" type="line" identifier="yyb1NCCI5w"/>
      <point x="4141.595844738432" y="1600.0" type="line" identifier="5FogYRSgkk"/>
      <point x="179.0409202912462" y="1600.0" type="line" identifier="svlFvrau4c"/>
      <point x="179.0409202912462" y="1094.4278913447502" type="line" identifier="LQ9fBsTy9K"/>
      <point x="820.0337219779781" y="1094.4278913447502" type="line"/>
      <point x="820.0337219779781" y="1013.6097537537537" type="line"/>
      <point x="2944.7591357601927" y="1013.6097537537537" type="line"/>
      <point x="2944.7591357601927" y="981.3111917296756" type="line"/>
      <point x="175.8073625556367" y="715.1652007409211" type="line" identifier="teVKnpBcVb"/>
    </contour>
  </outline>
</glyph>
<glyph name="E.wide" format="2">
  <advance width="4501"/>
  <outline>
    <contour>
      <point x="225" y="0" type="line" identifier="fZynkQ4XHB"/>
      <point x="4404" y="0" type="line" identifier="FAQNpgUPxV"/>
      <point x="4404" y="538" type="line" identifier="5cgTYOhATF"/>
      <point x="1163" y="538" type="line" identifier="bWs42DaCgU"/>
      <point x="1163" y="615" type="line" identifier="VtD2aADJmn"/>
      <point x="4308" y="615" type="line" identifier="PpbsFdHAnS"/>
      <point x="4308" y="986" type="line" identifier="8WuC5p8Ax5"/>
      <point x="1163" y="986" type="line" identifier="m39IWn9ntA"/>
      <point x="1163" y="1063" type="line" identifier="gQ21I4SHQg"/>
      <point x="4403" y="1063" type="line" identifier="eqNb2VTwYs"/>
      <point x="4403" y="1600" type="line" identifier="qYRmo14Il5"/>
      <point x="225" y="1600" type="line" identifier="HmJIcnLWfC"/>
    </contour>
  </outline>
</glyph>
<glyph name="F.wide" format="2">
  <advance width="4501"/>
  <outline>
    <contour>
      <point x="226" y="0" type="line" identifier="oAgH2tA6DJ"/>
      <point x="1164" y="0" type="line" identifier="zCZyMcW5ho"/>
      <point x="1164" y="338" type="line" identifier="yHYqkMd7LI"/>
      <point x="4184" y="338" type="line" identifier="NmB7yyQuio"/>
      <point x="4184" y="850" type="line" identifier="wQk2C8zPHh"/>
      <point x="1164" y="850" type="line" identifier="4cFHKQfHDt"/>
      <point x="1164" y="1007" type="line" identifier="ZvzwyrcwpS"/>
      <point x="4413" y="1007" type="line" identifier="4E754ovOIe"/>
      <point x="4413" y="1600" type="line" identifier="NUrIjqOB7J"/>
      <point x="226" y="1600" type="line" identifier="TBAYuCfUFX"/>
    </contour>
  </outline>
</glyph>
<glyph name="G.wide" format="2">
  <advance width="5331"/>
  <outline>
    <contour>
      <point x="221" y="0" type="line" identifier="7lPhzTnk2Z"/>
      <point x="5108" y="0" type="line" identifier="qJVLZGnkwh"/>
      <point x="5108" y="963" type="line" identifier="uek1NNj7De"/>
      <point x="2426" y="963" type="line" identifier="qcvimxjndX"/>
      <point x="2426" y="611" type="line" identifier="EARaY3Su65"/>
      <point x="4169" y="611" type="line" identifier="4m6dHLVhZq"/>
      <point x="4169" y="548" type="line" identifier="Y750RHTvDj"/>
      <point x="1159" y="548" type="line" identifier="L2LsGnXiZ2"/>
      <point x="1159" y="853" type="line" identifier="sUWsr03vF4"/>
      <point x="1352" y="1043" type="line" identifier="dbOUe6OhxL"/>
      <point x="5107" y="1043" type="line" identifier="5BjRbcud80"/>
      <point x="5107" y="1600" type="line" identifier="9eJelv8BOw"/>
      <point x="689" y="1600" type="line" identifier="lfZev3ICaC"/>
      <point x="221" y="1097" type="line" identifier="V1EWIdPahq"/>
    </contour>
  </outline>
</glyph>
<glyph name="K.alt" format="2">
  <advance width="5334.657029401773"/>
  <outline>
    <contour>
      <point x="1161.967989010031" y="0.0" type="line" identifier="wmNm7XZsaF"/>
      <point x="1161.967989010031" y="464.74765756747735" type="line" identifier="O22liaP9Qk"/>
      <point x="3888.1428275121966" y="464.74765756747735" type="line" identifier="ELFBWIb1vd"/>
      <point x="4171.106340574808" y="282.30048366684997" type="line" identifier="DzXo67YEfw"/>
      <point x="4171.106340574808" y="0.0" type="line" identifier="aKpYWD78l2"/>
      <point x="5109.807777747717" y="0.0" type="line" identifier="ChS7KlqGi6"/>
      <point x="5109.807777747717" y="558.6290374458542" type="line" identifier="sWLgkU8Vey"/>
      <point x="4749.1941611280945" y="799.0" type="line" identifier="Of0iQc0wBG"/>
      <point x="4749.1941611280945" y="801.0" type="line" identifier="j4jnmtDJYB"/>
      <point x="5112.958751544336" y="1600.0" type="line" identifier="dMJ1ywOKQQ"/>
      <point x="4177.862601340079" y="1600.0" type="line" identifier="08OWjR2YBJ"/>
      <point x="4021.724012300588" y="1107.7172036901768" type="line" identifier="g4YLdZEoM3"/>
      <point x="1161.967989010031" y="1107.7172036901768" type="line" identifier="uZuki3Isec"/>
      <point x="1161.967989010031" y="1600.0" type="line" identifier="nRfcNgqJ4H"/>
      <point x="223.2665518371224" y="1600.0" type="line" identifier="3XJlWt89ad"/>
      <point x="223.2665518371224" y="0.0" type="line" identifier="wdbO8kCovY"/>
    </contour>
  </outline>
</glyph>
<glyph name="R.alt" format="2">
  <advance width="5338.636985333681"/>
  <outline>
    <contour>
      <point x="1197.2403484565646" y="894.6245284323362" type="line"/>
      <point x="1195.519402285168" y="1009.506644782921" type="line"/>
      <point x="4138.078099120142" y="1009.506644782921" type="line"/>
      <point x="4138.93857220584" y="894.6245284323362" type="line"/>
    </contour>
    <contour>
      <point x="5080.100337574812" y="0.8478057637216796" type="line"/>
      <point x="4442.7769601433265" y="564.8387636886135" type="line"/>
      <point x="5125.8265021778525" y="570.327495663832" type="line"/>
      <point x="5076.779536293049" y="1600.8478057637217" type="line"/>
      <point x="257.6784381979577" y="1600.8478057637217" type="line"/>
      <point x="257.6784381979577" y="0.8478057637216796" type="line"/>
      <point x="1196.3798753708663" y="0.8478057637216796" type="line"/>
      <point x="1196.3798753708663" y="392.77256836415995" type="line"/>
      <point x="3606.7926244562877" y="392.59230401572745" type="line"/>
      <point x="4148.609474339204" y="0.8478057637216796" type="line"/>
    </contour>
  </outline>
</glyph>
<glyph name="S.alt" format="2">
  <advance width="4024.590846846847"/>
  <outline>
    <contour>
      <point x="76.73603603603604" y="0.0" type="line" identifier="09VlJ0BjUX"/>
      <point x="3947.819615615616" y="0.0" type="line" identifier="EagWihqFM8"/>
      <point x="3947.819615615616" y="1001.0" type="line" identifier="KfNuQA7eZe"/>
      <point x="823.7799824467351" y="1001.0" type="line" identifier="At364YZFEy"/>
      <point x="823.7799824467351" y="1068.455930585721" type="line"/>
      <point x="936.0671442636872" y="1067.3237237237238" type="line"/>
      <point x="3173.551433759093" y="1067.3237237237238" type="line" identifier="3ZUkG35meB"/>
      <point x="3173.551433759093" y="1064.8746204077952" type="line" identifier="DTOJhFIl15"/>
      <point x="3947.819615615616" y="1064.8746204077952" type="line" identifier="9KDcrfQ5Ui"/>
      <point x="3947.819615615616" y="1600.0" type="line" identifier="SaF9ojRFrW"/>
      <point x="523.5005133984434" y="1600.0" type="line"/>
      <point x="74.73603603603604" y="1082.46939472229" type="line"/>
      <point x="74.73603603603604" y="599.0" type="line" identifier="3sQ8t8BZ6b"/>
      <point x="3173.551433759093" y="599.0" type="line" identifier="yiV6OCBLHg"/>
      <point x="3173.551433759093" y="532.6762762762763" type="line" identifier="9kdl9SYsn8"/>
      <point x="845.0275240403646" y="532.6762762762763" type="line" identifier="yZDWuX8LLe"/>
      <point x="845.0275240403646" y="523.7294894894895" type="line" identifier="jYb9001DTm"/>
      <point x="76.73603603603604" y="523.7294894894895" type="line" identifier="ho4DrS0rdW"/>
    </contour>
  </outline>
</glyph>
<glyph name="S.wide" format="2">
  <advance width="4967"/>
  <outline>
    <contour>
      <point x="87" y="0" type="line" identifier="09VlJ0BjUX"/>
      <point x="4881" y="0" type="line" identifier="EagWihqFM8"/>
      <point x="4881" y="991" type="line" identifier="KfNuQA7eZe"/>
      <point x="1014" y="991" type="line" identifier="At364YZFEy"/>
      <point x="1014" y="929" type="line"/>
      <point x="1116" y="1074" type="line"/>
      <point x="4881" y="1074" type="line" identifier="3ZUkG35meB"/>
      <point x="4881" y="1600" type="line" identifier="SaF9ojRFrW"/>
      <point x="553" y="1600" type="line"/>
      <point x="85" y="901" type="line"/>
      <point x="85" y="609" type="line" identifier="3sQ8t8BZ6b"/>
      <point x="3942" y="609" type="line" identifier="yiV6OCBLHg"/>
      <point x="3942" y="526" type="line" identifier="9kdl9SYsn8"/>
      <point x="87" y="526" type="line" identifier="yZDWuX8LLe"/>
    </contour>
  </outline>
</glyph>
<glyph name="Z.wide" format="2">
  <advance width="5335"/>
  <outline>
    <contour>
      <point x="223" y="0" type="line"/>
      <point x="5113" y="0" type="line" identifier="pzdvPTirLJ"/>
      <point x="5113" y="590" type="line"/>
      <point x="1263" y="590" type="line"/>
      <point x="1263" y="566" type="line"/>
      <point x="5103" y="664" type="line" identifier="yyb1NCCI5w"/>
      <point x="5103" y="1600" type="line" identifier="5FogYRSgkk"/>
      <point x="242" y="1600" type="line" identifier="svlFvrau4c"/>
      <point x="242" y="1010" type="line"/>
      <point x="3952" y="1010" type="line"/>
      <point x="3952" y="1013" type="line"/>
      <point x="223" y="944" type="line" identifier="teVKnpBcVb"/>
    </contour>
  </outline>
</glyph>
